<svg width="212" height="18" viewBox="0 0 212 18" fill="none" xmlns="http://www.w3.org/2000/svg">
  <path fill-rule="evenodd" clip-rule="evenodd"
    d="M64.7747 12.8176C65.0752 13.0164 65.2081 13.1045 65.4111 13.2378C64.0081 13.2304 62.6341 13.2232 61.2433 13.2162C61.4389 13.3386 61.5849 13.43 61.7707 13.5458C60.3768 13.532 59.0357 13.5187 57.6284 13.5044C57.796 13.6147 57.9309 13.703 58.0808 13.8013C57.275 13.8324 56.4748 13.8938 55.6485 13.8851C55.0724 13.8787 54.4605 13.7665 53.866 13.7181C53.2333 13.6667 53.5908 14.0791 52.7851 14.0993C52.0175 14.118 51.221 14.0859 50.2574 14.0305C50.5122 14.2048 50.6351 14.2899 50.8445 14.434C49.4368 14.4265 48.0685 14.4194 46.6834 14.4122C46.8722 14.5271 47.0266 14.6197 47.178 14.7117C45.4696 14.7301 43.7652 14.749 41.9489 14.769C42.1967 14.9292 42.3342 15.0186 42.4744 15.1091C40.7727 15.1379 39.0587 15.1667 37.2669 15.1974C37.5405 15.3821 37.6681 15.4684 37.769 15.5362C36.0258 15.5621 34.3254 15.5874 32.555 15.6134C32.8234 15.7748 32.9766 15.8674 33.1247 15.9566C31.4143 15.9764 29.7105 15.9969 27.8988 16.0183C28.1485 16.1779 28.2899 16.2676 28.4541 16.3726C26.7661 16.3886 25.078 16.4042 23.3216 16.421C23.4831 16.5928 23.588 16.7045 23.763 16.8914C22.3287 16.762 20.8937 16.5085 19.6964 16.8212C19.8283 16.9006 19.9817 16.9936 20.1644 17.1041C18.8034 17.0629 17.4574 17.023 16.0097 16.9795C16.206 17.1906 16.3091 17.3024 16.4994 17.5076C14.4259 17.1883 12.5769 17.2251 10.8411 17.4795C10.9907 17.5721 11.1394 17.6639 11.3522 17.7945C11.0473 17.7902 10.7781 17.8253 10.5881 17.7782C9.51269 17.5097 8.67406 17.5104 7.68983 17.7937C7.58276 17.8243 7.35277 17.8082 7.20156 17.7795C6.97712 17.7363 6.69727 17.5952 6.56972 17.6133C5.98735 17.6981 5.39871 17.8453 4.77455 17.584C4.12678 17.313 3.86395 16.9181 3.19701 16.631C3.04657 16.5663 3.20039 16.3621 3.21037 16.2627C2.44171 16.0564 1.79184 15.8817 0.815134 15.6195C2.4057 15.5117 3.61646 15.4298 4.96138 15.3392C4.11329 15.0578 3.6046 15.1338 2.97785 15.2276C2.54597 15.2919 1.8705 15.1366 1.34076 15.0834C1.13733 14.4359 2.28521 14.5093 2.91261 14.4749C7.13425 14.244 11.1258 13.7536 15.1712 13.3292C19.5185 12.8728 23.7096 12.24 28.108 11.849C31.0442 11.5876 33.8831 11.2214 36.8347 10.9945C40.1635 10.7389 43.3631 10.3309 46.7287 10.1314C48.9029 10.0022 50.9339 9.71723 53.1297 9.5984C55.2132 9.48566 57.3069 9.31999 59.3288 9.12545C61.5176 8.91453 63.7306 8.73801 65.9598 8.58842C70.1257 8.30839 74.2677 7.99643 78.4523 7.7374C81.2034 7.5675 83.9356 7.34166 86.6748 7.14134C90.6756 6.84883 94.7427 6.65036 98.7292 6.33199C102.191 6.05559 105.823 5.99332 109.326 5.76334C112.237 5.57286 115.184 5.44348 118.112 5.28232C123.369 4.9922 128.625 4.70034 133.902 4.43909C137.291 4.27153 140.728 4.15988 144.078 3.93895C149.087 3.60927 154.232 3.50043 159.27 3.2317C162.281 3.07044 165.287 2.91398 168.334 2.80753C172.062 2.67806 175.704 2.39909 179.449 2.30634C185.049 2.16717 190.548 1.8754 196.088 1.6462C200.257 1.47414 204.484 1.39489 208.5 0.994313C209.053 0.939388 209.749 1.04543 210.322 1.07417C210.876 1.81796 208.803 1.43043 208.84 2.00285C209.286 1.97862 209.653 1.93382 210.036 1.94466C210.439 1.95597 210.857 2.02072 211.538 2.08909C211.292 2.31458 211.124 2.46912 210.955 2.62478C211.314 2.7673 211.992 2.81146 211.867 3.17739C211.805 3.36043 210.813 3.45895 211.736 3.75841C211.691 3.78031 211.658 3.81238 211.6 3.82192C211.182 3.88718 210.775 3.9665 210.335 4.00637C208.069 4.21245 205.851 4.50167 203.51 4.58369C200.306 4.69632 197.227 4.97095 194.053 5.1138C189.287 5.32813 184.516 5.53429 179.762 5.76781C176.749 5.91582 173.763 6.10602 170.748 6.27823C170.933 6.39029 171.087 6.48366 171.24 6.577C171.174 6.59761 171.114 6.6367 171.047 6.63323C170.928 6.6274 167.561 6.50308 167.34 6.50883C166.057 6.54196 164.772 6.57414 163.42 6.60805C163.689 6.77964 163.831 6.86984 164.187 7.09657C163.625 6.99579 163.34 6.95457 163.072 6.89351C162.777 6.82653 162.445 6.66444 162.221 6.67682C160.738 6.75647 159.28 6.87197 157.805 6.97713C157.988 7.09465 158.128 7.18379 158.487 7.41438C157.917 7.30917 157.633 7.26564 157.364 7.20447C157.07 7.13797 156.739 6.97842 156.514 6.99068C155.033 7.07054 153.577 7.18544 152.103 7.28953C152.287 7.40872 152.425 7.49813 152.786 7.73184C152.207 7.62208 151.925 7.57717 151.657 7.51564C151.364 7.44874 151.031 7.29277 150.805 7.30496C149.327 7.38422 147.873 7.49892 146.4 7.60271C146.585 7.72363 146.721 7.81209 147.087 8.04984C146.498 7.93586 146.152 7.91077 145.963 7.82238C145.613 7.6589 145.387 7.61905 144.891 7.65247C142.138 7.83851 139.353 7.98016 136.526 8.13964C136.719 8.26024 136.866 8.35127 137.021 8.44773C136.325 8.79284 135.57 7.84496 134.69 8.29023C134.337 8.46835 133.211 8.33571 132.332 8.34609C132.566 8.50043 132.7 8.58821 132.828 8.67302C132.735 8.70387 132.644 8.74667 132.526 8.76686C132.479 8.77516 130.231 8.5273 130.147 8.53195C128.121 8.64469 126.096 8.75725 124.032 8.87234C124.26 9.01099 124.414 9.10433 124.571 9.1998C122.604 9.01027 121.714 9.00204 119.963 9.15877C120.12 9.25364 120.272 9.34653 120.425 9.43823C120.297 9.46077 120.14 9.523 120.03 9.50297C117.387 9.02134 115.182 9.52838 112.762 9.54312C111.487 9.55107 110.291 9.73385 109.056 9.83757C109.23 9.94891 109.369 10.0384 109.517 10.1329C109.33 10.1499 109.16 10.1965 109.04 10.1716C107.08 9.76373 105.245 9.97001 103.602 10.1319C101.483 10.3409 99.1443 10.255 97.1794 10.655C97.2806 10.7196 97.4238 10.81 97.7064 10.9891L94.1572 10.6324C94.0587 10.7951 94.0009 10.8904 93.9283 11.0115C93.2708 11.2789 91.7621 10.5245 91.2561 11.2702C90.7732 11.2217 90.2058 11.1484 89.6418 11.1144C89.3591 11.0978 88.8572 11.1249 88.845 11.1806C88.7921 11.4234 88.5239 11.4216 88.0242 11.3998C87.3323 11.3689 86.2741 10.9669 86.061 11.5641C86.0493 11.5961 85.6196 11.5725 85.3821 11.5645C84.6594 11.5406 83.6495 11.195 83.4615 11.7602C82.7182 11.7135 81.9752 11.6664 81.2547 11.6209C81.0394 11.7389 80.8696 11.9526 80.6047 11.9536C79.9617 11.9567 79.2734 11.8625 78.6041 11.807C78.3863 12.3936 77.2291 12.0075 76.541 12.0159C76.4493 12.0725 76.3692 12.0974 76.3835 12.1167C76.4084 12.1505 76.4981 12.1794 76.5458 12.2138C76.625 12.271 76.6909 12.3304 76.8761 12.481L73.6079 12.1525C73.9065 12.3515 74.0377 12.4382 74.1741 12.5295C73.7357 12.8749 72.5906 12.2201 72.1355 12.6565C71.6814 13.0913 70.6877 12.6499 69.9687 12.6755C69.2048 12.7031 68.4426 12.7338 67.5675 12.7672C67.6142 12.737 67.5388 12.7628 67.5537 12.7817C67.5798 12.8156 67.6686 12.8445 67.7152 12.8784C67.7928 12.9349 67.8576 12.9947 68.0392 13.1457L64.7747 12.8176Z"
    fill="url(#paint0_linear_2116_94208)" />
  <defs>
    <linearGradient id="paint0_linear_2116_94208" x1="108.213" y1="-9.18679" x2="104.507" y2="27.6882"
      gradientUnits="userSpaceOnUse">
      <stop stop-color="#726FDC" />
      <stop offset="1" stop-color="#726FDC" stop-opacity="0" />
    </linearGradient>
  </defs>
</svg>