<svg width="32" height="32" viewBox="0 0 32 32" fill="none" xmlns="http://www.w3.org/2000/svg">
  <path
    d="M24.515 16C27.5962 11.6737 29.1675 7.2025 26.9825 5.0175C24.7975 2.8325 20.3262 4.40375 16 7.485C11.6737 4.40375 7.2025 2.8325 5.0175 5.0175C2.8325 7.2025 4.40375 11.6737 7.485 16C4.40375 20.3263 2.8325 24.7975 5.0175 26.9825C5.72125 27.6863 6.66125 28 7.75625 28C10.0662 28 13.0662 26.6037 16.0062 24.515C18.9337 26.6037 21.9337 28 24.25 28C25.345 28 26.2862 27.685 26.9887 26.9825C29.1675 24.7975 27.5962 20.3263 24.515 16ZM25.5687 6.43125C26.5237 7.38625 25.8787 10.4813 23.2537 14.3413C22.4233 13.3132 21.5392 12.3298 20.605 11.395C19.6701 10.4621 18.6867 9.57923 17.6587 8.75C21.5187 6.125 24.6137 5.475 25.5687 6.43125ZM22.0362 16C21.1517 17.119 20.2017 18.1846 19.1912 19.1912C18.1846 20.2017 17.119 21.1517 16 22.0362C14.881 21.1517 13.8154 20.2017 12.8087 19.1912C11.7983 18.1846 10.8483 17.119 9.96375 16C11.7384 13.7637 13.7637 11.7384 16 9.96375C17.119 10.8483 18.1846 11.7983 19.1912 12.8088C20.2017 13.8154 21.1517 14.881 22.0362 16ZM6.43125 6.43125C6.70625 6.155 7.16 6.0125 7.75875 6.0125C9.23625 6.0125 11.595 6.875 14.34 8.75C13.313 9.5799 12.33 10.4628 11.395 11.395C10.4621 12.3299 9.57923 13.3133 8.75 14.3413C6.125 10.4813 5.47625 7.38625 6.43125 6.43125ZM6.43125 25.5688C5.47625 24.6138 6.125 21.5188 8.75 17.6588C9.58044 18.6868 10.4646 19.6702 11.3987 20.605C12.333 21.5371 13.3152 22.42 14.3412 23.25C10.4812 25.875 7.38625 26.525 6.43125 25.5688ZM25.5687 25.5688C24.6137 26.525 21.5187 25.8787 17.6587 23.2537C18.6862 22.4226 19.6696 21.5385 20.605 20.605C21.5379 19.6701 22.4208 18.6867 23.25 17.6588C25.875 21.5188 26.5237 24.6138 25.5687 25.5688ZM17.5 16C17.5 16.2967 17.412 16.5867 17.2472 16.8334C17.0824 17.08 16.8481 17.2723 16.574 17.3858C16.2999 17.4993 15.9983 17.5291 15.7074 17.4712C15.4164 17.4133 15.1491 17.2704 14.9393 17.0607C14.7296 16.8509 14.5867 16.5836 14.5288 16.2926C14.4709 16.0017 14.5006 15.7001 14.6142 15.426C14.7277 15.1519 14.92 14.9176 15.1666 14.7528C15.4133 14.588 15.7033 14.5 16 14.5C16.3978 14.5 16.7794 14.658 17.0607 14.9393C17.342 15.2206 17.5 15.6022 17.5 16Z"
    fill="url(#paint0_linear_1_2)" />
  <defs>
    <linearGradient id="paint0_linear_1_2" x1="4" y1="4" x2="28" y2="28" gradientUnits="userSpaceOnUse">
      <stop stop-color="#DD7AF9" />
      <stop offset="1" stop-color="#4882F7" />
    </linearGradient>
  </defs>
</svg>